<?xml version="1.0" encoding="UTF-8" standalone="no"?>
<!-- Created with Inkscape (http://www.inkscape.org/) -->

<svg
   xmlns:ns1="http://www.iki.fi/pav/software/textext/"
   xmlns:dc="http://purl.org/dc/elements/1.1/"
   xmlns:cc="http://creativecommons.org/ns#"
   xmlns:rdf="http://www.w3.org/1999/02/22-rdf-syntax-ns#"
   xmlns:svg="http://www.w3.org/2000/svg"
   xmlns="http://www.w3.org/2000/svg"
   xmlns:xlink="http://www.w3.org/1999/xlink"
   xmlns:sodipodi="http://sodipodi.sourceforge.net/DTD/sodipodi-0.dtd"
   xmlns:inkscape="http://www.inkscape.org/namespaces/inkscape"
   width="1302"
   height="713.77203"
   id="svg2"
   version="1.1"
   inkscape:version="0.91 r13725"
   sodipodi:docname="turboprop.svg">
  <sodipodi:namedview
     id="base"
     pagecolor="#ffffff"
     bordercolor="#666666"
     borderopacity="1.0"
     inkscape:pageopacity="0.0"
     inkscape:pageshadow="2"
     inkscape:zoom="0.5"
     inkscape:cx="839.14759"
     inkscape:cy="545.66032"
     inkscape:document-units="px"
     inkscape:current-layer="layer1"
     showgrid="false"
     inkscape:window-width="1855"
     inkscape:window-height="1056"
     inkscape:window-x="65"
     inkscape:window-y="24"
     inkscape:window-maximized="1"
     fit-margin-top="0"
     fit-margin-left="0"
     fit-margin-right="0"
     fit-margin-bottom="0"
     inkscape:showpageshadow="false"
     inkscape:object-nodes="false"
     inkscape:snap-global="true"
     inkscape:snap-smooth-nodes="true"
     showguides="true"
     inkscape:guide-bbox="true"
     inkscape:snap-nodes="false"
     inkscape:object-paths="true" />
  <defs
     id="defs4">
    <marker
       inkscape:isstock="true"
       style="overflow:visible;"
       id="marker6510"
       refX="0.0"
       refY="0.0"
       orient="auto"
       inkscape:stockid="Arrow1Lend">
      <path
         transform="scale(0.8) rotate(180) translate(12.5,0)"
         style="fill-rule:evenodd;stroke:#000000;stroke-width:1pt;stroke-opacity:1;fill:#000000;fill-opacity:1"
         d="M 0.0,0.0 L 5.0,-5.0 L -12.5,0.0 L 5.0,5.0 L 0.0,0.0 z "
         id="path6254" />
    </marker>
    <marker
       inkscape:isstock="true"
       style="overflow:visible"
       id="marker6507"
       refX="0.0"
       refY="0.0"
       orient="auto"
       inkscape:stockid="Arrow1Lstart">
      <path
         transform="scale(0.8) translate(12.5,0)"
         style="fill-rule:evenodd;stroke:#000000;stroke-width:1pt;stroke-opacity:1;fill:#000000;fill-opacity:1"
         d="M 0.0,0.0 L 5.0,-5.0 L -12.5,0.0 L 5.0,5.0 L 0.0,0.0 z "
         id="path6251" />
    </marker>
    <marker
       inkscape:isstock="true"
       style="overflow:visible"
       id="marker5138"
       refX="0"
       refY="0"
       orient="auto"
       inkscape:stockid="Arrow1Lend">
      <path
         inkscape:connector-curvature="0"
         transform="matrix(-0.8,0,0,-0.8,-10,0)"
         style="fill:#000000;fill-opacity:1;fill-rule:evenodd;stroke:#000000;stroke-width:1pt;stroke-opacity:1"
         d="M 0,0 5,-5 -12.5,0 5,5 0,0 Z"
         id="path5140" />
    </marker>
    <marker
       inkscape:isstock="true"
       style="overflow:visible"
       id="marker5134"
       refX="0"
       refY="0"
       orient="auto"
       inkscape:stockid="Arrow1Lstart">
      <path
         inkscape:connector-curvature="0"
         transform="matrix(0.8,0,0,0.8,10,0)"
         style="fill:#000000;fill-opacity:1;fill-rule:evenodd;stroke:#000000;stroke-width:1pt;stroke-opacity:1"
         d="M 0,0 5,-5 -12.5,0 5,5 0,0 Z"
         id="path5136" />
    </marker>
    <marker
       inkscape:isstock="true"
       style="overflow:visible"
       id="marker5130"
       refX="0"
       refY="0"
       orient="auto"
       inkscape:stockid="Arrow1Lstart">
      <path
         inkscape:connector-curvature="0"
         transform="matrix(0.8,0,0,0.8,10,0)"
         style="fill:#000000;fill-opacity:1;fill-rule:evenodd;stroke:#000000;stroke-width:1pt;stroke-opacity:1"
         d="M 0,0 5,-5 -12.5,0 5,5 0,0 Z"
         id="path5132" />
    </marker>
    <marker
       inkscape:isstock="true"
       style="overflow:visible"
       id="marker5126"
       refX="0"
       refY="0"
       orient="auto"
       inkscape:stockid="Arrow1Lstart">
      <path
         inkscape:connector-curvature="0"
         transform="matrix(0.8,0,0,0.8,10,0)"
         style="fill:#000000;fill-opacity:1;fill-rule:evenodd;stroke:#000000;stroke-width:1pt;stroke-opacity:1"
         d="M 0,0 5,-5 -12.5,0 5,5 0,0 Z"
         id="path5128" />
    </marker>
    <marker
       inkscape:isstock="true"
       style="overflow:visible"
       id="marker5080"
       refX="0"
       refY="0"
       orient="auto"
       inkscape:stockid="Arrow1Lstart">
      <path
         inkscape:connector-curvature="0"
         transform="matrix(0.8,0,0,0.8,10,0)"
         style="fill:#000000;fill-opacity:1;fill-rule:evenodd;stroke:#000000;stroke-width:1pt;stroke-opacity:1"
         d="M 0,0 5,-5 -12.5,0 5,5 0,0 Z"
         id="path5082" />
    </marker>
    <marker
       inkscape:isstock="true"
       style="overflow:visible"
       id="Arrow1Lend"
       refX="0"
       refY="0"
       orient="auto"
       inkscape:stockid="Arrow1Lend">
      <path
         inkscape:connector-curvature="0"
         transform="matrix(-0.8,0,0,-0.8,-10,0)"
         style="fill:#000000;fill-opacity:1;fill-rule:evenodd;stroke:#000000;stroke-width:1pt;stroke-opacity:1"
         d="M 0,0 5,-5 -12.5,0 5,5 0,0 Z"
         id="path4464" />
    </marker>
    <marker
       inkscape:isstock="true"
       style="overflow:visible"
       id="marker4719"
       refX="0"
       refY="0"
       orient="auto"
       inkscape:stockid="Arrow1Lstart">
      <path
         inkscape:connector-curvature="0"
         transform="matrix(0.8,0,0,0.8,10,0)"
         style="fill:#000000;fill-opacity:1;fill-rule:evenodd;stroke:#000000;stroke-width:1pt;stroke-opacity:1"
         d="M 0,0 5,-5 -12.5,0 5,5 0,0 Z"
         id="path4721" />
    </marker>
    <marker
       inkscape:isstock="true"
       style="overflow:visible"
       id="Arrow1Lstart"
       refX="0"
       refY="0"
       orient="auto"
       inkscape:stockid="Arrow1Lstart">
      <path
         inkscape:connector-curvature="0"
         transform="matrix(0.8,0,0,0.8,10,0)"
         style="fill:#000000;fill-opacity:1;fill-rule:evenodd;stroke:#000000;stroke-width:1pt;stroke-opacity:1"
         d="M 0,0 5,-5 -12.5,0 5,5 0,0 Z"
         id="path4461" />
    </marker>
    <marker
       inkscape:isstock="true"
       style="overflow:visible"
       id="Arrow1Lstart-7"
       refX="0"
       refY="0"
       orient="auto"
       inkscape:stockid="Arrow1Lstart">
      <path
         transform="matrix(0.8,0,0,0.8,10,0)"
         style="fill:#000000;fill-opacity:1;fill-rule:evenodd;stroke:#000000;stroke-width:1pt;stroke-opacity:1"
         d="M 0,0 5,-5 -12.5,0 5,5 0,0 Z"
         id="path4461-5"
         inkscape:connector-curvature="0" />
    </marker>
    <marker
       inkscape:isstock="true"
       style="overflow:visible"
       id="Arrow1Lend-3"
       refX="0"
       refY="0"
       orient="auto"
       inkscape:stockid="Arrow1Lend">
      <path
         transform="matrix(-0.8,0,0,-0.8,-10,0)"
         style="fill:#000000;fill-opacity:1;fill-rule:evenodd;stroke:#000000;stroke-width:1pt;stroke-opacity:1"
         d="M 0,0 5,-5 -12.5,0 5,5 0,0 Z"
         id="path4464-5"
         inkscape:connector-curvature="0" />
    </marker>
    <marker
       inkscape:isstock="true"
       style="overflow:visible"
       id="Arrow1Lstart-7-2"
       refX="0"
       refY="0"
       orient="auto"
       inkscape:stockid="Arrow1Lstart">
      <path
         transform="matrix(0.8,0,0,0.8,10,0)"
         style="fill:#000000;fill-opacity:1;fill-rule:evenodd;stroke:#000000;stroke-width:1pt;stroke-opacity:1"
         d="M 0,0 5,-5 -12.5,0 5,5 0,0 Z"
         id="path4461-5-9"
         inkscape:connector-curvature="0" />
    </marker>
    <marker
       inkscape:isstock="true"
       style="overflow:visible"
       id="Arrow1Lend-3-1"
       refX="0"
       refY="0"
       orient="auto"
       inkscape:stockid="Arrow1Lend">
      <path
         transform="matrix(-0.8,0,0,-0.8,-10,0)"
         style="fill:#000000;fill-opacity:1;fill-rule:evenodd;stroke:#000000;stroke-width:1pt;stroke-opacity:1"
         d="M 0,0 5,-5 -12.5,0 5,5 0,0 Z"
         id="path4464-5-2"
         inkscape:connector-curvature="0" />
    </marker>
    <marker
       inkscape:isstock="true"
       style="overflow:visible"
       id="Arrow1Lstart-7-26"
       refX="0"
       refY="0"
       orient="auto"
       inkscape:stockid="Arrow1Lstart">
      <path
         transform="matrix(0.8,0,0,0.8,10,0)"
         style="fill:#000000;fill-opacity:1;fill-rule:evenodd;stroke:#000000;stroke-width:1pt;stroke-opacity:1"
         d="M 0,0 5,-5 -12.5,0 5,5 0,0 Z"
         id="path4461-5-1"
         inkscape:connector-curvature="0" />
    </marker>
    <marker
       inkscape:isstock="true"
       style="overflow:visible"
       id="Arrow1Lend-3-8"
       refX="0"
       refY="0"
       orient="auto"
       inkscape:stockid="Arrow1Lend">
      <path
         transform="matrix(-0.8,0,0,-0.8,-10,0)"
         style="fill:#000000;fill-opacity:1;fill-rule:evenodd;stroke:#000000;stroke-width:1pt;stroke-opacity:1"
         d="M 0,0 5,-5 -12.5,0 5,5 0,0 Z"
         id="path4464-5-7"
         inkscape:connector-curvature="0" />
    </marker>
    <marker
       inkscape:isstock="true"
       style="overflow:visible"
       id="Arrow1Lstart-7-26-2"
       refX="0"
       refY="0"
       orient="auto"
       inkscape:stockid="Arrow1Lstart">
      <path
         transform="matrix(0.8,0,0,0.8,10,0)"
         style="fill:#000000;fill-opacity:1;fill-rule:evenodd;stroke:#000000;stroke-width:1pt;stroke-opacity:1"
         d="M 0,0 5,-5 -12.5,0 5,5 0,0 Z"
         id="path4461-5-1-0"
         inkscape:connector-curvature="0" />
    </marker>
    <marker
       inkscape:isstock="true"
       style="overflow:visible"
       id="Arrow1Lend-3-8-2"
       refX="0"
       refY="0"
       orient="auto"
       inkscape:stockid="Arrow1Lend">
      <path
         transform="matrix(-0.8,0,0,-0.8,-10,0)"
         style="fill:#000000;fill-opacity:1;fill-rule:evenodd;stroke:#000000;stroke-width:1pt;stroke-opacity:1"
         d="M 0,0 5,-5 -12.5,0 5,5 0,0 Z"
         id="path4464-5-7-3"
         inkscape:connector-curvature="0" />
    </marker>
    <marker
       inkscape:isstock="true"
       style="overflow:visible"
       id="marker5080-5"
       refX="0"
       refY="0"
       orient="auto"
       inkscape:stockid="Arrow1Lstart">
      <path
         transform="matrix(0.8,0,0,0.8,10,0)"
         style="fill:#000000;fill-opacity:1;fill-rule:evenodd;stroke:#000000;stroke-width:1pt;stroke-opacity:1"
         d="M 0,0 5,-5 -12.5,0 5,5 0,0 Z"
         id="path5082-9"
         inkscape:connector-curvature="0" />
    </marker>
    <marker
       inkscape:isstock="true"
       style="overflow:visible"
       id="marker5080-5-2"
       refX="0"
       refY="0"
       orient="auto"
       inkscape:stockid="Arrow1Lstart">
      <path
         transform="matrix(0.8,0,0,0.8,10,0)"
         style="fill:#000000;fill-opacity:1;fill-rule:evenodd;stroke:#000000;stroke-width:1pt;stroke-opacity:1"
         d="M 0,0 5,-5 -12.5,0 5,5 0,0 Z"
         id="path5082-9-8"
         inkscape:connector-curvature="0" />
    </marker>
  </defs>
  <metadata
     id="metadata7">
    <rdf:RDF>
      <cc:Work
         rdf:about="">
        <dc:format>image/svg+xml</dc:format>
        <dc:type
           rdf:resource="http://purl.org/dc/dcmitype/StillImage" />
        <dc:title></dc:title>
      </cc:Work>
    </rdf:RDF>
  </metadata>
  <g
     transform="translate(-60.41698,176.42223)"
     id="layer1"
     inkscape:groupmode="layer"
     inkscape:label="Ebene 1">
    <path
       style="fill:#ffffff;fill-opacity:1;stroke:#000000;stroke-width:1;stroke-linecap:butt;stroke-linejoin:miter;stroke-miterlimit:4;stroke-dasharray:none;stroke-opacity:1"
       d="M 1032.3797,94.703831 1156.9282,-83.9493 c 20.7034,-29.69697 25.8979,-40.89905 64.0497,-41.59695 l 68.8625,-1.25966 -84.3636,230.89958 C 953.64062,167.25743 938.54631,229.83315 1032.3797,94.703831 Z"
       id="use3893"
       inkscape:connector-curvature="0"
       sodipodi:nodetypes="cssccc"
       inkscape:export-filename="/home/olivier/1&amp;0s/Desktop/do328_1.png"
       inkscape:export-xdpi="92.25"
       inkscape:export-ydpi="92.25" />
    <path
       style="fill:#ffffff;fill-opacity:1;stroke:#000000;stroke-width:1;stroke-linecap:butt;stroke-linejoin:miter;stroke-miterlimit:4;stroke-dasharray:none;stroke-opacity:1"
       d="m 218.41706,118.66552 -24.84569,22.08512 c -29.32222,15.53041 -69.63167,45.17884 -69.30872,54.85903 1.14097,34.20848 230.2272,28.34657 351.78211,26.63046 l 310.9532,-3.44759 c 47.16709,-0.26431 85.64357,-0.6859 129.65026,-2.09091 12.82742,-0.40955 14.37832,1.79306 28.03324,-3.65118 55.89224,-22.28435 227.49924,-72.72592 321.26204,-93.2455 3.3,-0.72221 11.0642,-9.6832 -0.5495,-12.54389 L 1032.3797,94.703831 832.19397,81.844919 307.63769,82.606319 C 266.3899,83.125903 245.0528,95.248541 218.41706,118.66552 Z"
       id="use3895"
       inkscape:connector-curvature="0"
       sodipodi:nodetypes="ccsccsssccccc"
       inkscape:export-filename="/home/olivier/1&amp;0s/Desktop/do328_1.png"
       inkscape:export-xdpi="92.25"
       inkscape:export-ydpi="92.25" />
    <path
       style="fill:#ffffff;fill-opacity:1;stroke:#000000;stroke-width:1;stroke-linecap:butt;stroke-linejoin:miter;stroke-miterlimit:4;stroke-dasharray:none;stroke-opacity:1"
       d="m 786.99796,218.79254 c -105.53775,21.53623 -188.81008,26.55783 -310.9532,3.44759 l -1.28503,-29.51875 c 94.86157,-5.97477 194.75363,-9.70417 320.10219,-2.07115 l 0.34578,27.45056 z"
       id="use3899"
       inkscape:connector-curvature="0"
       sodipodi:nodetypes="cccccc"
       inkscape:export-filename="/home/olivier/1&amp;0s/Desktop/do328_1.png"
       inkscape:export-xdpi="92.25"
       inkscape:export-ydpi="92.25" />
    <path
       style="fill:none;stroke:#000000;stroke-width:1;stroke-linecap:butt;stroke-linejoin:miter;stroke-miterlimit:4;stroke-dasharray:none;stroke-opacity:1"
       d="M 1254.8156,-128.63696 1143.2733,100.72821"
       id="use3909"
       sodipodi:nodetypes="cc"
       inkscape:export-filename="/home/olivier/1&amp;0s/Desktop/do328_1.png"
       inkscape:export-xdpi="92.25"
       inkscape:export-ydpi="92.25"
       inkscape:connector-curvature="0" />
    <path
       style="fill:#ffffff;fill-opacity:1;stroke:#000000;stroke-width:1;stroke-linecap:butt;stroke-linejoin:miter;stroke-miterlimit:4;stroke-dasharray:none;stroke-opacity:1"
       d="m 1182.3357,-101.91892 c -8.2608,0.37564 -18.8605,11.272425 0.1631,10.886785 l 34.6003,-0.701412 48.6586,-5.157032 -47.4846,-5.825781 -35.9373,0.79743 z"
       id="use3911"
       sodipodi:nodetypes="cscccc"
       inkscape:export-filename="/home/olivier/1&amp;0s/Desktop/do328_1.png"
       inkscape:export-xdpi="92.25"
       inkscape:export-ydpi="92.25"
       inkscape:connector-curvature="0" />
    <path
       style="fill:none;stroke:#000000;stroke-width:1;stroke-linecap:butt;stroke-linejoin:miter;stroke-miterlimit:4;stroke-dasharray:none;stroke-opacity:1"
       d="m 1217.4329,-102.55858 c -14.2115,1.91129 -9.0818,9.909749 -0.118,10.84273"
       id="use3913"
       sodipodi:nodetypes="cc"
       inkscape:export-filename="/home/olivier/1&amp;0s/Desktop/do328_1.png"
       inkscape:export-xdpi="92.25"
       inkscape:export-ydpi="92.25"
       inkscape:connector-curvature="0" />
    <path
       style="fill:none;stroke:#000000;stroke-width:1;stroke-linecap:butt;stroke-linejoin:miter;stroke-miterlimit:4;stroke-dasharray:none;stroke-opacity:1"
       d="m 193.57137,140.75064 c 3.11215,-0.0392 37.8837,-2.5726 37.8837,-2.5726 l 15.88645,-22.11154 -28.92446,2.59902"
       id="use3921"
       sodipodi:nodetypes="cccc"
       inkscape:export-filename="/home/olivier/1&amp;0s/Desktop/do328_1.png"
       inkscape:export-xdpi="92.25"
       inkscape:export-ydpi="92.25"
       inkscape:connector-curvature="0" />
    <path
       style="fill:none;stroke:#000000;stroke-width:1;stroke-linecap:butt;stroke-linejoin:miter;stroke-miterlimit:4;stroke-dasharray:none;stroke-opacity:1"
       d="m 281.75272,142.06476 c -0.0394,-3.12454 -4.57101,-26.87733 -4.57101,-26.87733 l -25.03594,1.05944 -16.75402,23.12802 c 10.9416,1.79673 29.96057,2.89646 46.36097,2.68987 z"
       id="use3923"
       sodipodi:nodetypes="ccccc"
       inkscape:export-filename="/home/olivier/1&amp;0s/Desktop/do328_1.png"
       inkscape:export-xdpi="92.25"
       inkscape:export-ydpi="92.25"
       inkscape:connector-curvature="0" />
    <path
       style="fill:none;stroke:#000000;stroke-width:1;stroke-linecap:butt;stroke-linejoin:miter;stroke-miterlimit:4;stroke-dasharray:none;stroke-opacity:0.49056624"
       d="m 585.2555,187.79957 0.22476,17.84286 50.47677,-0.63584 -0.23464,-18.62715"
       id="use3925"
       inkscape:export-filename="/home/olivier/1&amp;0s/Desktop/do328_1.png"
       inkscape:export-xdpi="92.25"
       inkscape:export-ydpi="92.25"
       inkscape:connector-curvature="0" />
    <path
       style="fill:none;stroke:#000000;stroke-width:1;stroke-linecap:butt;stroke-linejoin:miter;stroke-miterlimit:4;stroke-dasharray:none;stroke-opacity:1"
       d="m 585.47548,205.73466 0.32863,26.08989 11.02601,-0.13889 c 11.32095,-12.3012 27.11405,-11.32352 35.30262,-0.44469 l 4.06221,-0.0512 -0.32987,-26.18798"
       id="use3927"
       sodipodi:nodetypes="cccccc"
       inkscape:export-filename="/home/olivier/1&amp;0s/Desktop/do328_1.png"
       inkscape:export-xdpi="92.25"
       inkscape:export-ydpi="92.25"
       inkscape:connector-curvature="0" />
    <ellipse
       transform="matrix(0.99992067,-0.01259558,0.01259558,0.99992067,0,0)"
       ry="10.934867"
       rx="10.910938"
       cy="249.42453"
       cx="211.62402"
       style="fill:#ffffff;fill-opacity:1;stroke:#000000;stroke-width:1;stroke-miterlimit:4;stroke-dasharray:none;stroke-opacity:1"
       id="use3929"
       inkscape:export-filename="/home/olivier/1&amp;0s/Desktop/do328_1.png"
       inkscape:export-xdpi="92.25"
       inkscape:export-ydpi="92.25" />
    <ellipse
       transform="matrix(0.99992067,-0.01259558,0.01259558,0.99992067,0,0)"
       ry="5.0430584"
       rx="5.032023"
       cy="249.42453"
       cx="211.62407"
       style="fill:none;stroke:#000000;stroke-width:1;stroke-miterlimit:4;stroke-dasharray:none;stroke-opacity:1"
       id="use3931"
       inkscape:export-filename="/home/olivier/1&amp;0s/Desktop/do328_1.png"
       inkscape:export-xdpi="92.25"
       inkscape:export-ydpi="92.25" />
    <path
       style="fill:#ffffff;fill-opacity:1;stroke:#000000;stroke-width:1;stroke-linecap:butt;stroke-linejoin:miter;stroke-miterlimit:4;stroke-dasharray:none;stroke-opacity:1"
       d="m 196.84333,219.46076 -0.38196,16.28169 40.13716,1.84765 0.19246,-15.789 -39.94764,-2.34037 z"
       id="use3933"
       inkscape:export-filename="/home/olivier/1&amp;0s/Desktop/do328_1.png"
       inkscape:export-xdpi="92.25"
       inkscape:export-ydpi="92.25"
       inkscape:connector-curvature="0" />
    <ellipse
       ry="14.56043"
       rx="14.528713"
       cy="243.56111"
       cx="613.38708"
       style="fill:#ffffff;fill-opacity:1;stroke:#000000;stroke-width:1;stroke-miterlimit:4;stroke-dasharray:none;stroke-opacity:1"
       id="use3935"
       inkscape:export-filename="/home/olivier/1&amp;0s/Desktop/do328_1.png"
       inkscape:export-xdpi="92.25"
       inkscape:export-ydpi="92.25" />
    <ellipse
       transform="matrix(0.99992067,-0.01259558,0.01259558,0.99992067,0,0)"
       ry="5.8981361"
       rx="5.8852296"
       cy="251.92863"
       cx="610.1441"
       style="fill:#ffffff;fill-opacity:1;stroke:#000000;stroke-width:1;stroke-miterlimit:4;stroke-dasharray:none;stroke-opacity:1"
       id="use3937"
       inkscape:export-filename="/home/olivier/1&amp;0s/Desktop/do328_1.png"
       inkscape:export-xdpi="92.25"
       inkscape:export-ydpi="92.25" />
    <path
       inkscape:export-ydpi="92.25"
       inkscape:export-xdpi="92.25"
       inkscape:export-filename="/home/olivier/1&amp;0s/Desktop/do328_1.png"
       id="path3984"
       style="fill:#ffffff;fill-opacity:1;stroke:#000000;stroke-width:1;stroke-linecap:butt;stroke-linejoin:miter;stroke-miterlimit:4;stroke-dasharray:none;stroke-opacity:1"
       d="m 630.07776,129.3728 18.51569,-17.30519 c 0,0 -9.91924,-2.41855 -9.16678,-3.2598 9.01334,-10.076424 37.96345,-27.417146 37.96345,-27.417146 L 597.32744,67.511799 C 536.32607,62.937885 392.6757,87.477087 390.50778,106.53482 c -1.20662,10.60733 43.79741,16.77776 43.79741,16.77776 l -6.16295,1.79507 -1.67454,14.39074 c 13.90264,2.47009 38.92452,2.2841 53.98405,1.86779 74.10564,-2.04828 88.57186,-11.95947 149.62601,-11.99338 z"
       inkscape:connector-curvature="0"
       sodipodi:nodetypes="ccsccscccsc" />
    <path
       style="fill:#ffffff;fill-opacity:1;stroke:#000000;stroke-width:0.99999994;stroke-linecap:butt;stroke-linejoin:miter;stroke-miterlimit:4;stroke-dasharray:none;stroke-opacity:1"
       d="m 590.04102,67.15973 c 55.98206,0.748562 87.34909,14.230976 87.34909,14.230976 l -116.77003,0.784428 c -40.80844,0.274128 -31.7847,-15.833819 29.42094,-15.015404 z"
       id="use3967"
       sodipodi:nodetypes="ccss"
       inkscape:export-filename="/home/olivier/1&amp;0s/Desktop/do328_1.png"
       inkscape:export-xdpi="92.25"
       inkscape:export-ydpi="92.25"
       inkscape:connector-curvature="0" />
    <g
       id="use3969"
       transform="matrix(0.99992068,-0.01259558,0.01259558,0.99992068,-7.2429372,-499.9673)"
       inkscape:export-filename="/home/olivier/1&amp;0s/Desktop/do328_1.png"
       inkscape:export-xdpi="92.25"
       inkscape:export-ydpi="92.25">
      <path
         sodipodi:nodetypes="cccc"
         inkscape:connector-curvature="0"
         inkscape:export-ydpi="841.60071"
         inkscape:export-xdpi="841.60071"
         inkscape:export-filename="D:\Users\jonas\Documents\My Dropbox\Projektarbeit 21b\Dokumentation\Posterpräsentation\do328_gross.png"
         id="path4373"
         d="m 626.34506,590.10982 c -2.47777,0.66749 8.74317,14.89802 12.22888,14.51072 l 13.20719,0 c 2.54623,-4.86807 3.88431,-10.3402 8.2178,-14.31464"
         style="fill:#ffffff;fill-opacity:1;stroke:#000000;stroke-width:1;stroke-linecap:butt;stroke-linejoin:miter;stroke-miterlimit:4;stroke-dasharray:none;stroke-opacity:1" />
      <path
         inkscape:connector-curvature="0"
         inkscape:export-ydpi="841.60071"
         inkscape:export-xdpi="841.60071"
         inkscape:export-filename="D:\Users\jonas\Documents\My Dropbox\Projektarbeit 21b\Dokumentation\Posterpräsentation\do328_gross.png"
         sodipodi:nodetypes="cc"
         id="path4375"
         d="m 648.16137,604.71858 c -5.11941,-3.97823 -6.74807,-9.12005 -7.9243,-14.41268"
         style="fill:none;stroke:#000000;stroke-width:1;stroke-linecap:round;stroke-linejoin:miter;stroke-miterlimit:4;stroke-dasharray:none;stroke-opacity:1" />
    </g>
    <path
       inkscape:export-ydpi="92.25"
       inkscape:export-xdpi="92.25"
       inkscape:export-filename="/home/olivier/1&amp;0s/Desktop/do328_1.png"
       sodipodi:nodetypes="cccc"
       inkscape:connector-curvature="0"
       id="path3998"
       d="m 411.67526,97.433174 c 0.16043,-0.0025 -4.48415,-69.928272 -1.81332,-91.0038847 6.87756,49.5808067 12.7199,88.5449137 12.7199,88.5449137 z"
       style="fill:#ffffff;fill-opacity:1;stroke:#000000;stroke-width:1px;stroke-linecap:butt;stroke-linejoin:miter;stroke-opacity:1" />
    <use
       inkscape:export-ydpi="92.25"
       inkscape:export-xdpi="92.25"
       inkscape:export-filename="/home/olivier/1&amp;0s/Desktop/do328_1.png"
       height="572.29236"
       width="1370.5471"
       transform="matrix(0.99489211,-0.10434243,-0.08655423,-1.2792955,11.276779,282.53362)"
       id="use4000"
       xlink:href="#path3998"
       y="0"
       x="0" />
    <path
       inkscape:connector-curvature="0"
       id="path4451"
       d="m 122.45298,334.74721 88.55794,0"
       style="fill:none;fill-rule:evenodd;stroke:#000000;stroke-width:0.50850594;stroke-linecap:butt;stroke-linejoin:miter;stroke-miterlimit:4;stroke-dasharray:none;stroke-opacity:1;marker-start:url(#Arrow1Lstart);marker-end:url(#Arrow1Lend)" />
    <path
       sodipodi:nodetypes="cc"
       inkscape:connector-curvature="0"
       id="path4455"
       d="m 121.98396,-25.32181 0,427.45332"
       style="fill:none;fill-rule:evenodd;stroke:#000000;stroke-width:0.75623012;stroke-linecap:butt;stroke-linejoin:miter;stroke-miterlimit:4;stroke-dasharray:none;stroke-opacity:1" />
    <path
       inkscape:connector-curvature="0"
       id="path4455-3"
       d="m 214.58677,261.65814 0,79.94355"
       style="fill:none;fill-rule:evenodd;stroke:#000000;stroke-width:0.5;stroke-linecap:butt;stroke-linejoin:miter;stroke-miterlimit:4;stroke-dasharray:none;stroke-opacity:1" />
    <path
       inkscape:connector-curvature="0"
       id="path4455-6"
       d="m 613.48322,265.3971 0,103.67515"
       style="fill:none;fill-rule:evenodd;stroke:#000000;stroke-width:0.84267652;stroke-linecap:butt;stroke-linejoin:miter;stroke-miterlimit:4;stroke-dasharray:none;stroke-opacity:1" />
    <path
       inkscape:connector-curvature="0"
       id="path4451-6"
       d="m 122.72894,361.85042 489.2512,0"
       style="fill:none;fill-rule:evenodd;stroke:#000000;stroke-width:0.50204885;stroke-linecap:butt;stroke-linejoin:miter;stroke-miterlimit:4;stroke-dasharray:none;stroke-opacity:1;marker-start:url(#Arrow1Lstart-7);marker-end:url(#Arrow1Lend-3)" />
    <circle
       r="0"
       cy="-88.966858"
       cx="196.23322"
       id="path4777"
       style="opacity:1;fill:#ffffff;fill-opacity:0.1254902;stroke:#000000;stroke-width:1;stroke-miterlimit:4;stroke-dasharray:none;stroke-dashoffset:0;stroke-opacity:1" />
    <path
       sodipodi:nodetypes="cc"
       inkscape:connector-curvature="0"
       id="path4451-6-7"
       d="m 123.19334,389.10865 809.66555,-5.00174"
       style="fill:none;fill-rule:evenodd;stroke:#000000;stroke-width:0.50164515;stroke-linecap:butt;stroke-linejoin:miter;stroke-miterlimit:4;stroke-dasharray:none;stroke-opacity:1;marker-start:url(#Arrow1Lstart-7-2);marker-end:url(#Arrow1Lend-3-1)" />
    <path
       inkscape:connector-curvature="0"
       id="path4455-6-0"
       d="m 934.23322,221.78314 0,168.66043"
       style="fill:none;fill-rule:evenodd;stroke:#000000;stroke-width:0.6733411;stroke-linecap:butt;stroke-linejoin:miter;stroke-miterlimit:4;stroke-dasharray:none;stroke-opacity:1" />
    <path
       inkscape:connector-curvature="0"
       id="path4866"
       d="m 60.41698,259.10421 1302.00002,0"
       style="fill:none;fill-rule:evenodd;stroke:#000000;stroke-width:1.02058804px;stroke-linecap:butt;stroke-linejoin:miter;stroke-opacity:1" />
    <path
       sodipodi:nodetypes="ccssssssssssscsssccsscscccccccssscccccccccc"
       inkscape:connector-curvature="0"
       id="path4901"
       d="m 588.1908,151.3419 c -1.52173,-0.042 -3.00659,-0.54887 -4.248,-1.45017 -0.52849,-0.38371 -1.01325,-0.84163 -1.43671,-1.35717 -0.6458,-0.78622 -1.14112,-1.73275 -1.42337,-2.71999 -0.21872,-0.76502 -0.31188,-1.50867 -0.29089,-2.322 0.0417,-1.61579 0.5994,-3.17102 1.60088,-4.46423 0.34385,-0.44402 0.78602,-0.89474 1.22758,-1.25131 0.79773,-0.6442 1.70224,-1.11831 2.66853,-1.39873 0.95624,-0.27751 1.95732,-0.36534 2.95398,-0.25919 1.31757,0.14034 2.58351,0.62812 3.66,1.41025 0.52957,0.38476 1.01328,0.84171 1.43671,1.35722 0.34419,0.41903 0.66217,0.91027 0.91098,1.40737 0.46881,0.93664 0.73221,1.92501 0.79646,2.98862 0.0112,0.18541 0.0112,0.67059 0,0.856 -0.0642,1.063 -0.32788,2.05244 -0.79634,2.98838 -0.46255,0.92413 -1.10871,1.74384 -1.90781,2.42022 -0.71883,0.60845 -1.56861,1.08949 -2.46,1.39255 -0.86696,0.29475 -1.75836,0.42793 -2.692,0.40218 z m 0.604,-0.0233 c 1.08222,-0.0561 2.10707,-0.32572 3.04262,-0.79592 0.57385,-0.28841 1.11409,-0.65228 1.61338,-1.08862 0.1581,-0.13817 0.52007,-0.49698 0.65319,-0.6475 0.46402,-0.52462 0.81538,-1.04106 1.12669,-1.656 0.50255,-0.9927 0.77606,-2.08547 0.80544,-3.218 l 0.005,-0.202 -3.80928,0 -3.80928,0 0,-3.808 0,-3.808 -0.11,8e-5 c -0.27907,1.9e-4 -0.67398,0.0317 -1.01,0.0805 -1.21117,0.17591 -2.39129,0.66073 -3.38329,1.38994 -0.53233,0.39131 -1.03948,0.87791 -1.44853,1.38985 -0.87513,1.09525 -1.4309,2.40676 -1.60374,3.78457 -0.0364,0.28998 -0.0603,0.62969 -0.0604,0.85711 l -4e-5,0.114 3.808,0 3.808,0 0,3.808 0,3.808 0.11,-8e-5 c 0.0605,0 0.1784,-0.004 0.262,-0.008 z"
       style="fill:#000000;stroke-width:1;stroke-miterlimit:4;stroke-dasharray:none" />
    <path
       inkscape:connector-curvature="0"
       id="path4956"
       d="M 611.96028,258.74974 1072.9939,200.76698"
       style="fill:none;fill-rule:evenodd;stroke:#000000;stroke-width:0.5;stroke-linecap:butt;stroke-linejoin:miter;stroke-miterlimit:4;stroke-dasharray:none;stroke-opacity:1" />
    <path
       sodipodi:nodetypes="cc"
       inkscape:connector-curvature="0"
       id="path4958"
       d="m 588.48322,142.03314 29.75,116"
       style="fill:none;fill-rule:evenodd;stroke:#000000;stroke-width:0.5;stroke-linecap:butt;stroke-linejoin:miter;stroke-miterlimit:4;stroke-dasharray:none;stroke-opacity:1" />
    <path
       d="m 783.04425,237.37447 a 167.45689,161.30371 0 0 1 1.39364,21.61396 l -167.45467,-0.83029 z"
       sodipodi:end="0.0051473597"
       sodipodi:start="6.153978"
       sodipodi:ry="161.30371"
       sodipodi:rx="167.45689"
       sodipodi:cy="258.15814"
       sodipodi:cx="616.98322"
       sodipodi:type="arc"
       id="path4966"
       style="opacity:1;fill:none;fill-opacity:1;stroke:#000000;stroke-width:0.5;stroke-miterlimit:4;stroke-dasharray:none;stroke-dashoffset:0;stroke-opacity:1" />
    <path
       sodipodi:nodetypes="ccc"
       inkscape:connector-curvature="0"
       id="path4970"
       d="m 612.71715,241.83584 17.9784,-2.51085 3.34482,15.96187"
       style="fill:none;fill-rule:evenodd;stroke:#000000;stroke-width:0.38726041;stroke-linecap:butt;stroke-linejoin:miter;stroke-miterlimit:4;stroke-dasharray:none;stroke-opacity:1" />
    <circle
       r="0.68500972"
       cy="248.99019"
       cx="624.48279"
       id="path4976"
       style="opacity:1;fill:#000000;fill-opacity:1;stroke:#000000;stroke-width:0.5;stroke-miterlimit:4;stroke-dasharray:none;stroke-dashoffset:0;stroke-opacity:1" />
    <path
       sodipodi:nodetypes="cc"
       inkscape:connector-curvature="0"
       id="path4455-0-6"
       d="m 589.23322,-21.19352 0,156.45332"
       style="fill:none;fill-rule:evenodd;stroke:#000000;stroke-width:0.61000162;stroke-linecap:butt;stroke-linejoin:miter;stroke-miterlimit:4;stroke-dasharray:none;stroke-opacity:1" />
    <path
       inkscape:connector-curvature="0"
       id="path4451-6-9-7"
       d="m 124.07706,-11.966857 463.31232,0"
       style="fill:none;fill-rule:evenodd;stroke:#000000;stroke-width:0.48855892;stroke-linecap:butt;stroke-linejoin:miter;stroke-miterlimit:4;stroke-dasharray:none;stroke-opacity:1;marker-start:url(#Arrow1Lstart-7-26-2);marker-end:url(#Arrow1Lend-3-8-2)" />
    <text
       sodipodi:linespacing="125%"
       id="text5066"
       y="387.44318"
       x="323.46069"
       style="font-style:italic;font-variant:normal;font-weight:bold;font-stretch:normal;font-size:24px;line-height:125%;font-family:'CMU Classical Serif';-inkscape-font-specification:'CMU Classical Serif Bold Italic';letter-spacing:0px;word-spacing:0px;fill:#000000;fill-opacity:1;stroke:none;stroke-width:1px;stroke-linecap:butt;stroke-linejoin:miter;stroke-opacity:1"
       xml:space="preserve"><tspan
         y="387.44318"
         x="323.46069"
         id="tspan5068"
         sodipodi:role="line" /></text>
    <flowRoot
       style="font-style:italic;font-variant:normal;font-weight:bold;font-stretch:normal;font-size:24px;line-height:125%;font-family:'CMU Classical Serif';-inkscape-font-specification:'CMU Classical Serif Bold Italic';letter-spacing:0px;word-spacing:0px;fill:#000000;fill-opacity:1;stroke:none;stroke-width:1px;stroke-linecap:butt;stroke-linejoin:miter;stroke-opacity:1"
       id="flowRoot5070"
       xml:space="preserve"><flowRegion
         id="flowRegion5072"><rect
           y="615.95917"
           x="356.38181"
           height="32.526913"
           width="182.43355"
           id="rect5074" /></flowRegion><flowPara
         id="flowPara5076" /></flowRoot>    <path
       inkscape:connector-curvature="0"
       id="path5078"
       d="m 214.56626,395.92845 0,141.42136"
       style="fill:none;fill-rule:evenodd;stroke:#000000;stroke-width:1;stroke-linecap:butt;stroke-linejoin:miter;stroke-miterlimit:4;stroke-dasharray:none;stroke-opacity:1;marker-start:url(#marker5080)" />
    <path
       inkscape:connector-curvature="0"
       id="path5078-2"
       d="m 616.20292,394.92005 0,141.42136"
       style="fill:none;fill-rule:evenodd;stroke:#000000;stroke-width:1;stroke-linecap:butt;stroke-linejoin:miter;stroke-miterlimit:4;stroke-dasharray:none;stroke-opacity:1;marker-start:url(#marker5080-5)" />
    <path
       sodipodi:nodetypes="ccc"
       inkscape:connector-curvature="0"
       id="path5078-2-9"
       d="m 589.33286,-176.42223 0,81.618578 0,59.802786"
       style="fill:none;fill-rule:evenodd;stroke:#000000;stroke-width:1;stroke-linecap:butt;stroke-linejoin:miter;stroke-miterlimit:4;stroke-dasharray:none;stroke-opacity:1;marker-end:url(#marker5138)" />
    <g
       id="g4314"
       ns1:jacobian_sqrt="1.25"
       inkscapeversion="0.91"
       ns1:alignment="middle center"
       ns1:scale="1.0"
       ns1:preamble="/home/bernardo/.config/inkscape/extensions/default_packages.tex"
       ns1:text="$l_{\\text{fus}}$"
       ns1:pdfconverter="pdf2svg"
       ns1:texconverter="pdflatex"
       ns1:version="0.8.0"
       transform="matrix(2.7194069,0,0,2.4294713,71.727372,81.055926)">
      <g
         id="surface1">
        <g
           id="g4317"
           style="fill:#000000;fill-opacity:1">
          <path
             id="path4319"
             transform="translate(148.712,134.765)"
             d="m 2.578125,-6.8125 c 0,0 0,-0.109375 -0.140625,-0.109375 -0.21875,0 -0.953125,0.078125 -1.21875,0.109375 -0.078125,0 -0.1875,0.015625 -0.1875,0.203125 0,0.109375 0.109375,0.109375 0.25,0.109375 0.484375,0 0.5,0.09375 0.5,0.171875 L 1.75,-6.125 0.484375,-1.140625 C 0.453125,-1.03125 0.4375,-0.96875 0.4375,-0.8125 c 0,0.578125 0.4375,0.921875 0.90625,0.921875 0.328125,0 0.578125,-0.203125 0.75,-0.5625 0.171875,-0.375 0.296875,-0.953125 0.296875,-0.96875 0,-0.109375 -0.09375,-0.109375 -0.125,-0.109375 -0.09375,0 -0.109375,0.046875 -0.125,0.1875 C 1.96875,-0.703125 1.78125,-0.109375 1.375,-0.109375 c -0.296875,0 -0.296875,-0.3125 -0.296875,-0.453125 0,-0.25 0.015625,-0.296875 0.0625,-0.484375 z m 0,0"
             style="stroke:none;stroke-width:0"
             inkscape:connector-curvature="0" />
        </g>
        <g
           id="g4321"
           style="fill:#000000;fill-opacity:1">
          <path
             id="path4323"
             transform="translate(151.685,136.259)"
             d="m 1.4375,-2.75 0.875,0 0,-0.25 -0.90625,0 0,-0.78125 c 0,-0.640625 0.375,-0.921875 0.671875,-0.921875 0.0625,0 0.140625,0 0.203125,0.03125 C 2.1875,-4.625 2.125,-4.515625 2.125,-4.390625 c 0,0.1875 0.140625,0.3125 0.328125,0.3125 0.1875,0 0.328125,-0.125 0.328125,-0.3125 0,-0.3125 -0.3125,-0.515625 -0.6875,-0.515625 -0.546875,0 -1.1875,0.390625 -1.1875,1.125 l 0,0.78125 -0.59375,0 0,0.25 0.59375,0 0,2.203125 C 0.90625,-0.25 0.84375,-0.25 0.390625,-0.25 l 0,0.25 c 0.03125,0 0.515625,-0.03125 0.796875,-0.03125 0.296875,0 0.609375,0.015625 0.90625,0.03125 l 0,-0.25 -0.140625,0 C 1.4375,-0.25 1.4375,-0.328125 1.4375,-0.5625 Z m 0,0"
             style="stroke:none;stroke-width:0"
             inkscape:connector-curvature="0" />
          <path
             id="path4325"
             transform="translate(154.15512,136.259)"
             d="m 2.515625,-3 0,0.25 c 0.46875,0 0.515625,0.046875 0.515625,0.390625 l 0,1.203125 c 0,0.609375 -0.390625,1.03125 -0.921875,1.03125 -0.625,0 -0.65625,-0.296875 -0.65625,-0.65625 l 0,-2.296875 L 0.375,-3 l 0,0.25 c 0.53125,0 0.53125,0.03125 0.53125,0.640625 l 0,1.046875 c 0,0.484375 0,1.125 1.15625,1.125 0.15625,0 0.65625,0 1,-0.578125 l 0,0.578125 L 4.109375,0 l 0,-0.25 c -0.46875,0 -0.515625,-0.046875 -0.515625,-0.390625 l 0,-2.4375 z m 0,0"
             style="stroke:none;stroke-width:0"
             inkscape:connector-curvature="0" />
          <path
             id="path4327"
             transform="translate(158.55559,136.259)"
             d="m 2.640625,-2.921875 c 0,-0.125 0,-0.1875 -0.09375,-0.1875 -0.03125,0 -0.046875,0 -0.140625,0.078125 -0.015625,0.015625 -0.078125,0.078125 -0.125,0.109375 -0.21875,-0.140625 -0.46875,-0.1875 -0.734375,-0.1875 -1,0 -1.234375,0.53125 -1.234375,0.875 0,0.21875 0.09375,0.40625 0.265625,0.546875 0.265625,0.21875 0.53125,0.265625 0.96875,0.34375 0.34375,0.0625 0.90625,0.15625 0.90625,0.625 0,0.265625 -0.1875,0.59375 -0.859375,0.59375 -0.671875,0 -0.90625,-0.4375 -1.03125,-0.90625 -0.03125,-0.09375 -0.03125,-0.125 -0.125,-0.125 -0.125,0 -0.125,0.046875 -0.125,0.1875 l 0,0.859375 C 0.3125,0 0.3125,0.0625 0.40625,0.0625 0.46875,0.0625 0.609375,-0.078125 0.75,-0.234375 1.046875,0.0625 1.421875,0.0625 1.59375,0.0625 c 0.90625,0 1.25,-0.484375 1.25,-0.96875 0,-0.265625 -0.125,-0.484375 -0.3125,-0.640625 -0.265625,-0.25 -0.578125,-0.3125 -0.828125,-0.34375 -0.546875,-0.109375 -1,-0.1875 -1,-0.5625 0,-0.21875 0.1875,-0.484375 0.84375,-0.484375 0.8125,0 0.84375,0.5625 0.859375,0.765625 0,0.078125 0.09375,0.078125 0.109375,0.078125 0.125,0 0.125,-0.046875 0.125,-0.1875 z m 0,0"
             style="stroke:none;stroke-width:0"
             inkscape:connector-curvature="0" />
        </g>
      </g>
    </g>
    <g
       transform="matrix(2.5,0,0,2.5,-25.993238,37.46409)"
       ns1:version="0.8.0"
       ns1:texconverter="pdflatex"
       ns1:pdfconverter="pdf2svg"
       ns1:text="$x_\\text{MLG}$"
       ns1:preamble="/home/bernardo/.config/inkscape/extensions/default_packages.tex"
       ns1:scale="2.0"
       ns1:alignment="middle center"
       inkscapeversion="0.91"
       ns1:jacobian_sqrt="2.5"
       id="g4521">
      <g
         id="g4523">
        <g
           style="fill:#000000;fill-opacity:1"
           id="g4525">
          <path
             inkscape:connector-curvature="0"
             style="stroke:none;stroke-width:0"
             d="M 3.328125,-3.015625 C 3.390625,-3.265625 3.625,-4.1875 4.3125,-4.1875 c 0.046875,0 0.296875,0 0.5,0.125 C 4.53125,-4 4.34375,-3.765625 4.34375,-3.515625 c 0,0.15625 0.109375,0.34375 0.375,0.34375 0.21875,0 0.53125,-0.171875 0.53125,-0.578125 0,-0.515625 -0.578125,-0.65625 -0.921875,-0.65625 -0.578125,0 -0.921875,0.53125 -1.046875,0.75 -0.25,-0.65625 -0.78125,-0.75 -1.078125,-0.75 -1.03125,0 -1.609375,1.28125 -1.609375,1.53125 0,0.109375 0.109375,0.109375 0.125,0.109375 0.078125,0 0.109375,-0.03125 0.125,-0.109375 0.34375,-1.0625 1,-1.3125 1.34375,-1.3125 0.1875,0 0.53125,0.09375 0.53125,0.671875 0,0.3125 -0.171875,0.96875 -0.53125,2.375 -0.15625,0.609375 -0.515625,1.03125 -0.953125,1.03125 -0.0625,0 -0.28125,0 -0.5,-0.125 0.25,-0.0625 0.46875,-0.265625 0.46875,-0.546875 0,-0.265625 -0.21875,-0.34375 -0.359375,-0.34375 -0.3125,0 -0.546875,0.25 -0.546875,0.578125 0,0.453125 0.484375,0.65625 0.921875,0.65625 0.671875,0 1.03125,-0.703125 1.046875,-0.75 0.125,0.359375 0.484375,0.75 1.078125,0.75 1.03125,0 1.59375,-1.28125 1.59375,-1.53125 0,-0.109375 -0.078125,-0.109375 -0.109375,-0.109375 -0.09375,0 -0.109375,0.046875 -0.140625,0.109375 -0.328125,1.078125 -1,1.3125 -1.3125,1.3125 -0.390625,0 -0.546875,-0.3125 -0.546875,-0.65625 0,-0.21875 0.046875,-0.4375 0.15625,-0.875 z m 0,0"
             transform="translate(148.712,134.765)"
             id="path4527" />
        </g>
        <g
           style="fill:#000000;fill-opacity:1"
           id="g4529">
          <path
             inkscape:connector-curvature="0"
             style="stroke:none;stroke-width:0"
             d="m 1.921875,-4.609375 c -0.0625,-0.15625 -0.125,-0.15625 -0.265625,-0.15625 l -1.21875,0 0,0.25 0.15625,0 c 0.546875,0 0.5625,0.078125 0.5625,0.328125 l 0,3.4375 c 0,0.1875 0,0.5 -0.71875,0.5 l 0,0.25 C 0.71875,-0.015625 1,-0.03125 1.28125,-0.03125 1.5625,-0.03125 1.84375,-0.015625 2.125,0 l 0,-0.25 c -0.703125,0 -0.703125,-0.3125 -0.703125,-0.5 l 0,-3.6875 1.8125,4.28125 C 3.265625,-0.078125 3.296875,0 3.40625,0 3.453125,0 3.515625,-0.015625 3.578125,-0.140625 L 5.421875,-4.5 l 0,3.9375 c 0,0.234375 -0.015625,0.3125 -0.546875,0.3125 l -0.171875,0 0,0.25 c 0.328125,-0.015625 0.71875,-0.03125 1.015625,-0.03125 0.28125,0 0.671875,0.015625 1,0.03125 l 0,-0.25 -0.15625,0 C 6.015625,-0.25 6,-0.328125 6,-0.5625 l 0,-3.625 c 0,-0.25 0.015625,-0.328125 0.5625,-0.328125 l 0.15625,0 0,-0.25 -1.203125,0 c -0.140625,0 -0.203125,0 -0.265625,0.140625 l -1.671875,3.953125 z m 0,0"
             transform="translate(154.406,136.259)"
             id="path4531" />
          <path
             inkscape:connector-curvature="0"
             style="stroke:none;stroke-width:0"
             d="m 4.53125,-1.828125 -0.234375,0 C 4.21875,-1.15625 4.125,-0.25 2.796875,-0.25 l -0.6875,0 c -0.328125,0 -0.34375,-0.0625 -0.34375,-0.265625 l 0,-3.671875 c 0,-0.234375 0,-0.328125 0.65625,-0.328125 l 0.25,0 0,-0.25 C 2.515625,-4.75 1.625,-4.734375 1.453125,-4.734375 c -0.265625,0 -1.0625,-0.03125 -1.0625,-0.03125 l 0,0.25 0.171875,0 c 0.53125,0 0.546875,0.078125 0.546875,0.328125 l 0,3.625 c 0,0.234375 -0.015625,0.3125 -0.546875,0.3125 l -0.171875,0 0,0.25 3.9375,0 z m 0,0"
             transform="translate(161.57367,136.259)"
             id="path4533" />
          <path
             inkscape:connector-curvature="0"
             style="stroke:none;stroke-width:0"
             d="m 5.1875,-1.359375 c 0,-0.3125 0.078125,-0.3125 0.546875,-0.3125 l 0,-0.25 c -0.0625,0 -0.5625,0.03125 -0.90625,0.03125 -0.375,0 -0.890625,0 -1.265625,-0.03125 l 0,0.25 0.265625,0 c 0.703125,0 0.703125,0.09375 0.703125,0.3125 l 0,0.453125 c 0,0.15625 0,0.421875 -0.40625,0.625 -0.328125,0.171875 -0.71875,0.171875 -0.8125,0.171875 -0.796875,0 -2.078125,-0.453125 -2.078125,-2.28125 0,-1.84375 1.328125,-2.25 2.015625,-2.25 0.671875,0 1.515625,0.453125 1.6875,1.65625 0.015625,0.078125 0.078125,0.078125 0.125,0.078125 0.125,0 0.125,-0.046875 0.125,-0.1875 l 0,-1.625 c 0,-0.125 0,-0.1875 -0.09375,-0.1875 -0.03125,0 -0.0625,0 -0.125,0.09375 l -0.359375,0.53125 c -0.34375,-0.359375 -0.84375,-0.625 -1.453125,-0.625 -1.453125,0 -2.671875,1.125 -2.671875,2.515625 0,1.390625 1.1875,2.53125 2.6875,2.53125 0.390625,0 1.15625,-0.078125 1.484375,-0.5625 C 4.78125,-0.234375 5.03125,0 5.109375,0 5.1875,0 5.1875,-0.078125 5.1875,-0.1875 Z m 0,0"
             transform="translate(166.49996,136.259)"
             id="path4535" />
        </g>
      </g>
    </g>
    <g
       id="g4745"
       ns1:jacobian_sqrt="2.5"
       inkscapeversion="0.91"
       ns1:alignment="middle center"
       ns1:scale="2.0"
       ns1:preamble="/home/bernardo/.config/inkscape/extensions/default_packages.tex"
       ns1:text="$x_\\text{NLG}$\n"
       ns1:pdfconverter="pdf2svg"
       ns1:texconverter="pdflatex"
       ns1:version="0.8.0"
       transform="matrix(2.5,0,0,2.5,-232.2743,10.594032)">
      <g
         id="g4747">
        <g
           id="g4749"
           style="fill:#000000;fill-opacity:1">
          <path
             id="path4751"
             transform="translate(148.712,134.765)"
             d="M 3.328125,-3.015625 C 3.390625,-3.265625 3.625,-4.1875 4.3125,-4.1875 c 0.046875,0 0.296875,0 0.5,0.125 C 4.53125,-4 4.34375,-3.765625 4.34375,-3.515625 c 0,0.15625 0.109375,0.34375 0.375,0.34375 0.21875,0 0.53125,-0.171875 0.53125,-0.578125 0,-0.515625 -0.578125,-0.65625 -0.921875,-0.65625 -0.578125,0 -0.921875,0.53125 -1.046875,0.75 -0.25,-0.65625 -0.78125,-0.75 -1.078125,-0.75 -1.03125,0 -1.609375,1.28125 -1.609375,1.53125 0,0.109375 0.109375,0.109375 0.125,0.109375 0.078125,0 0.109375,-0.03125 0.125,-0.109375 0.34375,-1.0625 1,-1.3125 1.34375,-1.3125 0.1875,0 0.53125,0.09375 0.53125,0.671875 0,0.3125 -0.171875,0.96875 -0.53125,2.375 -0.15625,0.609375 -0.515625,1.03125 -0.953125,1.03125 -0.0625,0 -0.28125,0 -0.5,-0.125 0.25,-0.0625 0.46875,-0.265625 0.46875,-0.546875 0,-0.265625 -0.21875,-0.34375 -0.359375,-0.34375 -0.3125,0 -0.546875,0.25 -0.546875,0.578125 0,0.453125 0.484375,0.65625 0.921875,0.65625 0.671875,0 1.03125,-0.703125 1.046875,-0.75 0.125,0.359375 0.484375,0.75 1.078125,0.75 1.03125,0 1.59375,-1.28125 1.59375,-1.53125 0,-0.109375 -0.078125,-0.109375 -0.109375,-0.109375 -0.09375,0 -0.109375,0.046875 -0.140625,0.109375 -0.328125,1.078125 -1,1.3125 -1.3125,1.3125 -0.390625,0 -0.546875,-0.3125 -0.546875,-0.65625 0,-0.21875 0.046875,-0.4375 0.15625,-0.875 z m 0,0"
             style="stroke:none;stroke-width:0"
             inkscape:connector-curvature="0" />
        </g>
        <g
           id="g4753"
           style="fill:#000000;fill-opacity:1">
          <path
             id="path4755"
             transform="translate(154.406,136.259)"
             d="M 1.8125,-4.65625 C 1.734375,-4.75 1.734375,-4.765625 1.59375,-4.765625 l -1.203125,0 0,0.25 0.203125,0 c 0.3125,0 0.484375,0.046875 0.515625,0.046875 l 0,3.71875 c 0,0.1875 0,0.5 -0.71875,0.5 l 0,0.25 c 0.28125,-0.015625 0.5625,-0.03125 0.84375,-0.03125 0.296875,0 0.578125,0.015625 0.859375,0.03125 l 0,-0.25 C 1.375,-0.25 1.375,-0.5625 1.375,-0.75 l 0,-3.515625 3.09375,4.15625 C 4.53125,0 4.546875,0 4.625,0 4.765625,0 4.765625,-0.0625 4.765625,-0.1875 l 0,-3.8125 c 0,-0.1875 0,-0.515625 0.71875,-0.515625 l 0,-0.25 C 5.1875,-4.734375 4.90625,-4.734375 4.625,-4.734375 c -0.28125,0 -0.5625,0 -0.84375,-0.03125 l 0,0.25 C 4.5,-4.515625 4.5,-4.1875 4.5,-4 l 0,2.953125 z m 0,0"
             style="stroke:none;stroke-width:0"
             inkscape:connector-curvature="0" />
          <path
             id="path4757"
             transform="translate(160.28701,136.259)"
             d="m 4.53125,-1.828125 -0.234375,0 C 4.21875,-1.15625 4.125,-0.25 2.796875,-0.25 l -0.6875,0 c -0.328125,0 -0.34375,-0.0625 -0.34375,-0.265625 l 0,-3.671875 c 0,-0.234375 0,-0.328125 0.65625,-0.328125 l 0.25,0 0,-0.25 C 2.515625,-4.75 1.625,-4.734375 1.453125,-4.734375 c -0.265625,0 -1.0625,-0.03125 -1.0625,-0.03125 l 0,0.25 0.171875,0 c 0.53125,0 0.546875,0.078125 0.546875,0.328125 l 0,3.625 c 0,0.234375 -0.015625,0.3125 -0.546875,0.3125 l -0.171875,0 0,0.25 3.9375,0 z m 0,0"
             style="stroke:none;stroke-width:0"
             inkscape:connector-curvature="0" />
          <path
             id="path4759"
             transform="translate(165.2133,136.259)"
             d="m 5.1875,-1.359375 c 0,-0.3125 0.078125,-0.3125 0.546875,-0.3125 l 0,-0.25 c -0.0625,0 -0.5625,0.03125 -0.90625,0.03125 -0.375,0 -0.890625,0 -1.265625,-0.03125 l 0,0.25 0.265625,0 c 0.703125,0 0.703125,0.09375 0.703125,0.3125 l 0,0.453125 c 0,0.15625 0,0.421875 -0.40625,0.625 -0.328125,0.171875 -0.71875,0.171875 -0.8125,0.171875 -0.796875,0 -2.078125,-0.453125 -2.078125,-2.28125 0,-1.84375 1.328125,-2.25 2.015625,-2.25 0.671875,0 1.515625,0.453125 1.6875,1.65625 0.015625,0.078125 0.078125,0.078125 0.125,0.078125 0.125,0 0.125,-0.046875 0.125,-0.1875 l 0,-1.625 c 0,-0.125 0,-0.1875 -0.09375,-0.1875 -0.03125,0 -0.0625,0 -0.125,0.09375 l -0.359375,0.53125 c -0.34375,-0.359375 -0.84375,-0.625 -1.453125,-0.625 -1.453125,0 -2.671875,1.125 -2.671875,2.515625 0,1.390625 1.1875,2.53125 2.6875,2.53125 0.390625,0 1.15625,-0.078125 1.484375,-0.5625 C 4.78125,-0.234375 5.03125,0 5.109375,0 5.1875,0 5.1875,-0.078125 5.1875,-0.1875 Z m 0,0"
             style="stroke:none;stroke-width:0"
             inkscape:connector-curvature="0" />
        </g>
      </g>
    </g>
    <g
       transform="matrix(2.5,0,0,2.5,421.37746,-81.454597)"
       ns1:version="0.8.0"
       ns1:texconverter="pdflatex"
       ns1:pdfconverter="pdf2svg"
       ns1:text="\\ang{15}"
       ns1:preamble="/home/bernardo/.config/inkscape/extensions/default_packages.tex"
       ns1:scale="2.0"
       ns1:alignment="middle center"
       inkscapeversion="0.91"
       ns1:jacobian_sqrt="2.5"
       id="g4985">
      <g
         id="g4987">
        <g
           style="fill:#000000;fill-opacity:1"
           id="g4989">
          <path
             inkscape:connector-curvature="0"
             style="stroke:none;stroke-width:0"
             d="m 2.9375,-6.375 c 0,-0.25 0,-0.265625 -0.234375,-0.265625 C 2.078125,-6 1.203125,-6 0.890625,-6 l 0,0.3125 c 0.203125,0 0.78125,0 1.296875,-0.265625 l 0,5.171875 c 0,0.359375 -0.03125,0.46875 -0.921875,0.46875 l -0.3125,0 0,0.3125 c 0.34375,-0.03125 1.203125,-0.03125 1.609375,-0.03125 0.390625,0 1.265625,0 1.609375,0.03125 l 0,-0.3125 -0.3125,0 c -0.90625,0 -0.921875,-0.109375 -0.921875,-0.46875 z m 0,0"
             transform="translate(148.712,134.765)"
             id="path4991" />
          <path
             inkscape:connector-curvature="0"
             style="stroke:none;stroke-width:0"
             d="m 4.46875,-2 c 0,-1.1875 -0.8125,-2.1875 -1.890625,-2.1875 -0.46875,0 -0.90625,0.15625 -1.265625,0.515625 l 0,-1.953125 c 0.203125,0.0625 0.53125,0.125 0.84375,0.125 1.234375,0 1.9375,-0.90625 1.9375,-1.03125 0,-0.0625 -0.03125,-0.109375 -0.109375,-0.109375 0,0 -0.03125,0 -0.078125,0.03125 C 3.703125,-6.515625 3.21875,-6.3125 2.546875,-6.3125 2.15625,-6.3125 1.6875,-6.390625 1.21875,-6.59375 1.140625,-6.625 1.125,-6.625 1.109375,-6.625 1,-6.625 1,-6.546875 1,-6.390625 L 1,-3.4375 c 0,0.171875 0,0.25 0.140625,0.25 0.078125,0 0.09375,-0.015625 0.140625,-0.078125 C 1.390625,-3.421875 1.75,-3.96875 2.5625,-3.96875 c 0.515625,0 0.765625,0.453125 0.84375,0.640625 0.15625,0.375 0.1875,0.75 0.1875,1.25 0,0.359375 0,0.953125 -0.25,1.375 C 3.109375,-0.3125 2.734375,-0.0625 2.28125,-0.0625 c -0.71875,0 -1.296875,-0.53125 -1.46875,-1.109375 0.03125,0 0.0625,0.015625 0.171875,0.015625 0.328125,0 0.5,-0.25 0.5,-0.484375 0,-0.25 -0.171875,-0.5 -0.5,-0.5 C 0.84375,-2.140625 0.5,-2.0625 0.5,-1.609375 0.5,-0.75 1.1875,0.21875 2.296875,0.21875 3.453125,0.21875 4.46875,-0.734375 4.46875,-2 Z m 0,0"
             transform="translate(153.6933,134.765)"
             id="path4993" />
        </g>
        <g
           style="fill:#000000;fill-opacity:1"
           id="g4995">
          <path
             inkscape:connector-curvature="0"
             style="stroke:none;stroke-width:0"
             d="m 3.53125,-1.734375 c 0,-0.84375 -0.671875,-1.5 -1.5,-1.5 -0.828125,0 -1.5,0.671875 -1.5,1.484375 0,0.84375 0.6875,1.5 1.5,1.5 0.84375,0 1.5,-0.671875 1.5,-1.484375 z m -1.5,1.140625 C 1.375,-0.59375 0.875,-1.125 0.875,-1.734375 c 0,-0.65625 0.515625,-1.171875 1.15625,-1.171875 0.65625,0 1.15625,0.53125 1.15625,1.15625 0,0.65625 -0.515625,1.15625 -1.15625,1.15625 z m 0,0"
             transform="translate(158.675,131.149)"
             id="path4997" />
        </g>
      </g>
    </g>
    <g
       id="g5237"
       ns1:jacobian_sqrt="2.5"
       inkscapeversion="0.91"
       ns1:alignment="middle center"
       ns1:scale="2.0"
       ns1:preamble="/home/bernardo/.config/inkscape/extensions/default_packages.tex"
       ns1:text="$x_\\text{CG}$"
       ns1:pdfconverter="pdf2svg"
       ns1:texconverter="pdflatex"
       ns1:version="0.8.0"
       transform="matrix(2.5,0,0,2.5,-51.925826,-361.34414)">
      <g
         id="g5239">
        <g
           id="g5241"
           style="fill:#000000;fill-opacity:1">
          <path
             id="path5243"
             transform="translate(148.712,134.765)"
             d="M 3.328125,-3.015625 C 3.390625,-3.265625 3.625,-4.1875 4.3125,-4.1875 c 0.046875,0 0.296875,0 0.5,0.125 C 4.53125,-4 4.34375,-3.765625 4.34375,-3.515625 c 0,0.15625 0.109375,0.34375 0.375,0.34375 0.21875,0 0.53125,-0.171875 0.53125,-0.578125 0,-0.515625 -0.578125,-0.65625 -0.921875,-0.65625 -0.578125,0 -0.921875,0.53125 -1.046875,0.75 -0.25,-0.65625 -0.78125,-0.75 -1.078125,-0.75 -1.03125,0 -1.609375,1.28125 -1.609375,1.53125 0,0.109375 0.109375,0.109375 0.125,0.109375 0.078125,0 0.109375,-0.03125 0.125,-0.109375 0.34375,-1.0625 1,-1.3125 1.34375,-1.3125 0.1875,0 0.53125,0.09375 0.53125,0.671875 0,0.3125 -0.171875,0.96875 -0.53125,2.375 -0.15625,0.609375 -0.515625,1.03125 -0.953125,1.03125 -0.0625,0 -0.28125,0 -0.5,-0.125 0.25,-0.0625 0.46875,-0.265625 0.46875,-0.546875 0,-0.265625 -0.21875,-0.34375 -0.359375,-0.34375 -0.3125,0 -0.546875,0.25 -0.546875,0.578125 0,0.453125 0.484375,0.65625 0.921875,0.65625 0.671875,0 1.03125,-0.703125 1.046875,-0.75 0.125,0.359375 0.484375,0.75 1.078125,0.75 1.03125,0 1.59375,-1.28125 1.59375,-1.53125 0,-0.109375 -0.078125,-0.109375 -0.109375,-0.109375 -0.09375,0 -0.109375,0.046875 -0.140625,0.109375 -0.328125,1.078125 -1,1.3125 -1.3125,1.3125 -0.390625,0 -0.546875,-0.3125 -0.546875,-0.65625 0,-0.21875 0.046875,-0.4375 0.15625,-0.875 z m 0,0"
             style="stroke:none;stroke-width:0"
             inkscape:connector-curvature="0" />
        </g>
        <g
           id="g5245"
           style="fill:#000000;fill-opacity:1">
          <path
             id="path5247"
             transform="translate(154.406,136.259)"
             d="m 5.1875,-4.71875 c 0,-0.125 0,-0.1875 -0.09375,-0.1875 -0.03125,0 -0.0625,0 -0.125,0.09375 l -0.375,0.53125 c -0.28125,-0.296875 -0.765625,-0.625 -1.4375,-0.625 -1.46875,0 -2.671875,1.140625 -2.671875,2.515625 0,1.421875 1.234375,2.53125 2.671875,2.53125 1.234375,0 2.03125,-0.921875 2.03125,-1.765625 0,-0.078125 -0.015625,-0.140625 -0.125,-0.140625 -0.03125,0 -0.109375,0 -0.109375,0.09375 -0.0625,1.125 -1.015625,1.5625 -1.703125,1.5625 -0.734375,0 -2.015625,-0.453125 -2.015625,-2.265625 0,-1.890625 1.34375,-2.265625 2,-2.265625 0.703125,0 1.515625,0.453125 1.703125,1.65625 0.015625,0.078125 0.078125,0.078125 0.125,0.078125 0.125,0 0.125,-0.046875 0.125,-0.1875 z m 0,0"
             style="stroke:none;stroke-width:0"
             inkscape:connector-curvature="0" />
          <path
             id="path5249"
             transform="translate(160.09313,136.259)"
             d="m 5.1875,-1.359375 c 0,-0.3125 0.078125,-0.3125 0.546875,-0.3125 l 0,-0.25 c -0.0625,0 -0.5625,0.03125 -0.90625,0.03125 -0.375,0 -0.890625,0 -1.265625,-0.03125 l 0,0.25 0.265625,0 c 0.703125,0 0.703125,0.09375 0.703125,0.3125 l 0,0.453125 c 0,0.15625 0,0.421875 -0.40625,0.625 -0.328125,0.171875 -0.71875,0.171875 -0.8125,0.171875 -0.796875,0 -2.078125,-0.453125 -2.078125,-2.28125 0,-1.84375 1.328125,-2.25 2.015625,-2.25 0.671875,0 1.515625,0.453125 1.6875,1.65625 0.015625,0.078125 0.078125,0.078125 0.125,0.078125 0.125,0 0.125,-0.046875 0.125,-0.1875 l 0,-1.625 c 0,-0.125 0,-0.1875 -0.09375,-0.1875 -0.03125,0 -0.0625,0 -0.125,0.09375 l -0.359375,0.53125 c -0.34375,-0.359375 -0.84375,-0.625 -1.453125,-0.625 -1.453125,0 -2.671875,1.125 -2.671875,2.515625 0,1.390625 1.1875,2.53125 2.6875,2.53125 0.390625,0 1.15625,-0.078125 1.484375,-0.5625 C 4.78125,-0.234375 5.03125,0 5.109375,0 5.1875,0 5.1875,-0.078125 5.1875,-0.1875 Z m 0,0"
             style="stroke:none;stroke-width:0"
             inkscape:connector-curvature="0" />
        </g>
      </g>
    </g>
    <g
       transform="matrix(2.5,0,0,2.5,221.9618,-438.59087)"
       ns1:version="0.8.0"
       ns1:texconverter="pdflatex"
       ns1:pdfconverter="pdf2svg"
       ns1:text="$W$"
       ns1:preamble="/home/bernardo/.config/inkscape/extensions/default_packages.tex"
       ns1:scale="2.0"
       ns1:alignment="middle center"
       inkscapeversion="0.91"
       ns1:jacobian_sqrt="2.5"
       id="g5503">
      <g
         id="g5505">
        <g
           style="fill:#000000;fill-opacity:1"
           id="g5507">
          <path
             inkscape:connector-curvature="0"
             style="stroke:none;stroke-width:0"
             d="m 9.140625,-5.65625 c 0.25,-0.4375 0.484375,-0.796875 1.125,-0.84375 0.07813,-0.015625 0.1875,-0.015625 0.1875,-0.203125 0,-0.03125 -0.04687,-0.109375 -0.125,-0.109375 -0.234375,0 -0.515625,0.03125 -0.765625,0.03125 -0.34375,0 -0.703125,-0.03125 -1.046875,-0.03125 -0.046875,0 -0.1875,0 -0.1875,0.1875 0,0.109375 0.09375,0.125 0.15625,0.125 0.234375,0.015625 0.59375,0.09375 0.59375,0.390625 0,0.109375 -0.0625,0.1875 -0.140625,0.328125 L 6.25,-1.09375 5.875,-6.03125 c 0,-0.203125 -0.015625,-0.453125 0.703125,-0.46875 0.171875,0 0.265625,0 0.265625,-0.203125 0,-0.09375 -0.109375,-0.109375 -0.140625,-0.109375 -0.40625,0 -0.828125,0.03125 -1.21875,0.03125 -0.234375,0 -0.8125,-0.03125 -1.046875,-0.03125 -0.0625,0 -0.1875,0 -0.1875,0.203125 C 4.25,-6.5 4.34375,-6.5 4.484375,-6.5 4.921875,-6.5 5,-6.4375 5.015625,-6.25 l 0.0625,0.765625 -2.53125,4.390625 -0.375,-5.046875 c 0,-0.125 0,-0.34375 0.765625,-0.359375 0.09375,0 0.203125,0 0.203125,-0.203125 C 3.140625,-6.8125 3.015625,-6.8125 3,-6.8125 c -0.390625,0 -0.8125,0.03125 -1.21875,0.03125 -0.359375,0 -0.71875,-0.03125 -1.046875,-0.03125 -0.0625,0 -0.1875,0 -0.1875,0.1875 0,0.125 0.09375,0.125 0.25,0.125 0.5,0 0.515625,0.09375 0.53125,0.375 l 0.453125,6.078125 c 0,0.1875 0.015625,0.265625 0.15625,0.265625 0.109375,0 0.140625,-0.0625 0.234375,-0.203125 l 2.9375,-5.09375 0.359375,5.03125 C 5.5,0.171875 5.515625,0.21875 5.625,0.21875 c 0.140625,0 0.203125,-0.09375 0.25,-0.1875 z m 0,0"
             transform="translate(148.712,134.765)"
             id="path5509" />
        </g>
      </g>
    </g>
    <g
       id="g5771"
       ns1:jacobian_sqrt="2.5"
       inkscapeversion="0.91"
       ns1:alignment="middle center"
       ns1:scale="2.0"
       ns1:preamble="/home/bernardo/.config/inkscape/extensions/default_packages.tex"
       ns1:text="$F_\\text{MLG}$"
       ns1:pdfconverter="pdf2svg"
       ns1:texconverter="pdflatex"
       ns1:version="0.8.0"
       transform="matrix(2.5,0,0,2.5,247.37529,143.67043)">
      <g
         id="g5773">
        <g
           id="g5775"
           style="fill:#000000;fill-opacity:1">
          <path
             id="path5777"
             transform="translate(148.712,134.765)"
             d="m 3.015625,-3.234375 0.96875,0 c 0.75,0 0.828125,0.15625 0.828125,0.4375 0,0.078125 0,0.1875 -0.0625,0.5 C 4.71875,-2.25 4.71875,-2.21875 4.71875,-2.1875 c 0,0.078125 0.0625,0.109375 0.109375,0.109375 0.109375,0 0.109375,-0.03125 0.15625,-0.203125 L 5.53125,-4.453125 C 5.5625,-4.5625 5.5625,-4.578125 5.5625,-4.609375 5.5625,-4.625 5.546875,-4.71875 5.4375,-4.71875 5.34375,-4.71875 5.328125,-4.671875 5.296875,-4.5 5.078125,-3.734375 4.859375,-3.546875 4,-3.546875 l -0.90625,0 0.640625,-2.53125 C 3.828125,-6.4375 3.84375,-6.46875 4.28125,-6.46875 l 1.3125,0 c 1.21875,0 1.453125,0.328125 1.453125,1.09375 0,0.234375 0,0.265625 -0.03125,0.546875 C 7,-4.703125 7,-4.6875 7,-4.65625 c 0,0.046875 0.03125,0.125 0.125,0.125 0.109375,0 0.109375,-0.0625 0.125,-0.25 L 7.453125,-6.515625 C 7.484375,-6.78125 7.4375,-6.78125 7.1875,-6.78125 l -4.890625,0 c -0.1875,0 -0.296875,0 -0.296875,0.203125 0,0.109375 0.09375,0.109375 0.28125,0.109375 0.375,0 0.65625,0 0.65625,0.171875 0,0.046875 0,0.0625 -0.0625,0.25 L 1.5625,-0.78125 c -0.09375,0.390625 -0.109375,0.46875 -0.90625,0.46875 -0.171875,0 -0.28125,0 -0.28125,0.1875 C 0.375,0 0.5,0 0.53125,0 0.8125,0 1.5625,-0.03125 1.84375,-0.03125 2.171875,-0.03125 3,0 3.328125,0 3.421875,0 3.53125,0 3.53125,-0.1875 3.53125,-0.265625 3.484375,-0.296875 3.484375,-0.296875 3.453125,-0.3125 3.421875,-0.3125 3.203125,-0.3125 c -0.21875,0 -0.265625,0 -0.515625,-0.015625 -0.296875,-0.03125 -0.328125,-0.078125 -0.328125,-0.203125 0,-0.015625 0,-0.078125 0.046875,-0.21875 z m 0,0"
             style="stroke:none;stroke-width:0"
             inkscape:connector-curvature="0" />
        </g>
        <g
           id="g5779"
           style="fill:#000000;fill-opacity:1">
          <path
             id="path5781"
             transform="translate(155.119,136.259)"
             d="m 1.921875,-4.609375 c -0.0625,-0.15625 -0.125,-0.15625 -0.265625,-0.15625 l -1.21875,0 0,0.25 0.15625,0 c 0.546875,0 0.5625,0.078125 0.5625,0.328125 l 0,3.4375 c 0,0.1875 0,0.5 -0.71875,0.5 l 0,0.25 C 0.71875,-0.015625 1,-0.03125 1.28125,-0.03125 1.5625,-0.03125 1.84375,-0.015625 2.125,0 l 0,-0.25 c -0.703125,0 -0.703125,-0.3125 -0.703125,-0.5 l 0,-3.6875 1.8125,4.28125 C 3.265625,-0.078125 3.296875,0 3.40625,0 3.453125,0 3.515625,-0.015625 3.578125,-0.140625 L 5.421875,-4.5 l 0,3.9375 c 0,0.234375 -0.015625,0.3125 -0.546875,0.3125 l -0.171875,0 0,0.25 c 0.328125,-0.015625 0.71875,-0.03125 1.015625,-0.03125 0.28125,0 0.671875,0.015625 1,0.03125 l 0,-0.25 -0.15625,0 C 6.015625,-0.25 6,-0.328125 6,-0.5625 l 0,-3.625 c 0,-0.25 0.015625,-0.328125 0.5625,-0.328125 l 0.15625,0 0,-0.25 -1.203125,0 c -0.140625,0 -0.203125,0 -0.265625,0.140625 l -1.671875,3.953125 z m 0,0"
             style="stroke:none;stroke-width:0"
             inkscape:connector-curvature="0" />
          <path
             id="path5783"
             transform="translate(162.28667,136.259)"
             d="m 4.53125,-1.828125 -0.234375,0 C 4.21875,-1.15625 4.125,-0.25 2.796875,-0.25 l -0.6875,0 c -0.328125,0 -0.34375,-0.0625 -0.34375,-0.265625 l 0,-3.671875 c 0,-0.234375 0,-0.328125 0.65625,-0.328125 l 0.25,0 0,-0.25 C 2.515625,-4.75 1.625,-4.734375 1.453125,-4.734375 c -0.265625,0 -1.0625,-0.03125 -1.0625,-0.03125 l 0,0.25 0.171875,0 c 0.53125,0 0.546875,0.078125 0.546875,0.328125 l 0,3.625 c 0,0.234375 -0.015625,0.3125 -0.546875,0.3125 l -0.171875,0 0,0.25 3.9375,0 z m 0,0"
             style="stroke:none;stroke-width:0"
             inkscape:connector-curvature="0" />
          <path
             id="path5785"
             transform="translate(167.21296,136.259)"
             d="m 5.1875,-1.359375 c 0,-0.3125 0.078125,-0.3125 0.546875,-0.3125 l 0,-0.25 c -0.0625,0 -0.5625,0.03125 -0.90625,0.03125 -0.375,0 -0.890625,0 -1.265625,-0.03125 l 0,0.25 0.265625,0 c 0.703125,0 0.703125,0.09375 0.703125,0.3125 l 0,0.453125 c 0,0.15625 0,0.421875 -0.40625,0.625 -0.328125,0.171875 -0.71875,0.171875 -0.8125,0.171875 -0.796875,0 -2.078125,-0.453125 -2.078125,-2.28125 0,-1.84375 1.328125,-2.25 2.015625,-2.25 0.671875,0 1.515625,0.453125 1.6875,1.65625 0.015625,0.078125 0.078125,0.078125 0.125,0.078125 0.125,0 0.125,-0.046875 0.125,-0.1875 l 0,-1.625 c 0,-0.125 0,-0.1875 -0.09375,-0.1875 -0.03125,0 -0.0625,0 -0.125,0.09375 l -0.359375,0.53125 c -0.34375,-0.359375 -0.84375,-0.625 -1.453125,-0.625 -1.453125,0 -2.671875,1.125 -2.671875,2.515625 0,1.390625 1.1875,2.53125 2.6875,2.53125 0.390625,0 1.15625,-0.078125 1.484375,-0.5625 C 4.78125,-0.234375 5.03125,0 5.109375,0 5.1875,0 5.1875,-0.078125 5.1875,-0.1875 Z m 0,0"
             style="stroke:none;stroke-width:0"
             inkscape:connector-curvature="0" />
        </g>
      </g>
    </g>
    <g
       transform="matrix(2.5,0,0,2.5,-155.48146,140.842)"
       ns1:version="0.8.0"
       ns1:texconverter="pdflatex"
       ns1:pdfconverter="pdf2svg"
       ns1:text="$F_\\text{NLG}$"
       ns1:preamble="/home/bernardo/.config/inkscape/extensions/default_packages.tex"
       ns1:scale="2.0"
       ns1:alignment="middle center"
       inkscapeversion="0.91"
       ns1:jacobian_sqrt="2.5"
       id="g6063">
      <g
         id="g6065">
        <g
           style="fill:#000000;fill-opacity:1"
           id="g6067">
          <path
             inkscape:connector-curvature="0"
             style="stroke:none;stroke-width:0"
             d="m 3.015625,-3.234375 0.96875,0 c 0.75,0 0.828125,0.15625 0.828125,0.4375 0,0.078125 0,0.1875 -0.0625,0.5 C 4.71875,-2.25 4.71875,-2.21875 4.71875,-2.1875 c 0,0.078125 0.0625,0.109375 0.109375,0.109375 0.109375,0 0.109375,-0.03125 0.15625,-0.203125 L 5.53125,-4.453125 C 5.5625,-4.5625 5.5625,-4.578125 5.5625,-4.609375 5.5625,-4.625 5.546875,-4.71875 5.4375,-4.71875 5.34375,-4.71875 5.328125,-4.671875 5.296875,-4.5 5.078125,-3.734375 4.859375,-3.546875 4,-3.546875 l -0.90625,0 0.640625,-2.53125 C 3.828125,-6.4375 3.84375,-6.46875 4.28125,-6.46875 l 1.3125,0 c 1.21875,0 1.453125,0.328125 1.453125,1.09375 0,0.234375 0,0.265625 -0.03125,0.546875 C 7,-4.703125 7,-4.6875 7,-4.65625 c 0,0.046875 0.03125,0.125 0.125,0.125 0.109375,0 0.109375,-0.0625 0.125,-0.25 L 7.453125,-6.515625 C 7.484375,-6.78125 7.4375,-6.78125 7.1875,-6.78125 l -4.890625,0 c -0.1875,0 -0.296875,0 -0.296875,0.203125 0,0.109375 0.09375,0.109375 0.28125,0.109375 0.375,0 0.65625,0 0.65625,0.171875 0,0.046875 0,0.0625 -0.0625,0.25 L 1.5625,-0.78125 c -0.09375,0.390625 -0.109375,0.46875 -0.90625,0.46875 -0.171875,0 -0.28125,0 -0.28125,0.1875 C 0.375,0 0.5,0 0.53125,0 0.8125,0 1.5625,-0.03125 1.84375,-0.03125 2.171875,-0.03125 3,0 3.328125,0 3.421875,0 3.53125,0 3.53125,-0.1875 3.53125,-0.265625 3.484375,-0.296875 3.484375,-0.296875 3.453125,-0.3125 3.421875,-0.3125 3.203125,-0.3125 c -0.21875,0 -0.265625,0 -0.515625,-0.015625 -0.296875,-0.03125 -0.328125,-0.078125 -0.328125,-0.203125 0,-0.015625 0,-0.078125 0.046875,-0.21875 z m 0,0"
             transform="translate(148.712,134.765)"
             id="path6069" />
        </g>
        <g
           style="fill:#000000;fill-opacity:1"
           id="g6071">
          <path
             inkscape:connector-curvature="0"
             style="stroke:none;stroke-width:0"
             d="M 1.8125,-4.65625 C 1.734375,-4.75 1.734375,-4.765625 1.59375,-4.765625 l -1.203125,0 0,0.25 0.203125,0 c 0.3125,0 0.484375,0.046875 0.515625,0.046875 l 0,3.71875 c 0,0.1875 0,0.5 -0.71875,0.5 l 0,0.25 c 0.28125,-0.015625 0.5625,-0.03125 0.84375,-0.03125 0.296875,0 0.578125,0.015625 0.859375,0.03125 l 0,-0.25 C 1.375,-0.25 1.375,-0.5625 1.375,-0.75 l 0,-3.515625 3.09375,4.15625 C 4.53125,0 4.546875,0 4.625,0 4.765625,0 4.765625,-0.0625 4.765625,-0.1875 l 0,-3.8125 c 0,-0.1875 0,-0.515625 0.71875,-0.515625 l 0,-0.25 C 5.1875,-4.734375 4.90625,-4.734375 4.625,-4.734375 c -0.28125,0 -0.5625,0 -0.84375,-0.03125 l 0,0.25 C 4.5,-4.515625 4.5,-4.1875 4.5,-4 l 0,2.953125 z m 0,0"
             transform="translate(155.119,136.259)"
             id="path6073" />
          <path
             inkscape:connector-curvature="0"
             style="stroke:none;stroke-width:0"
             d="m 4.53125,-1.828125 -0.234375,0 C 4.21875,-1.15625 4.125,-0.25 2.796875,-0.25 l -0.6875,0 c -0.328125,0 -0.34375,-0.0625 -0.34375,-0.265625 l 0,-3.671875 c 0,-0.234375 0,-0.328125 0.65625,-0.328125 l 0.25,0 0,-0.25 C 2.515625,-4.75 1.625,-4.734375 1.453125,-4.734375 c -0.265625,0 -1.0625,-0.03125 -1.0625,-0.03125 l 0,0.25 0.171875,0 c 0.53125,0 0.546875,0.078125 0.546875,0.328125 l 0,3.625 c 0,0.234375 -0.015625,0.3125 -0.546875,0.3125 l -0.171875,0 0,0.25 3.9375,0 z m 0,0"
             transform="translate(161.00001,136.259)"
             id="path6075" />
          <path
             inkscape:connector-curvature="0"
             style="stroke:none;stroke-width:0"
             d="m 5.1875,-1.359375 c 0,-0.3125 0.078125,-0.3125 0.546875,-0.3125 l 0,-0.25 c -0.0625,0 -0.5625,0.03125 -0.90625,0.03125 -0.375,0 -0.890625,0 -1.265625,-0.03125 l 0,0.25 0.265625,0 c 0.703125,0 0.703125,0.09375 0.703125,0.3125 l 0,0.453125 c 0,0.15625 0,0.421875 -0.40625,0.625 -0.328125,0.171875 -0.71875,0.171875 -0.8125,0.171875 -0.796875,0 -2.078125,-0.453125 -2.078125,-2.28125 0,-1.84375 1.328125,-2.25 2.015625,-2.25 0.671875,0 1.515625,0.453125 1.6875,1.65625 0.015625,0.078125 0.078125,0.078125 0.125,0.078125 0.125,0 0.125,-0.046875 0.125,-0.1875 l 0,-1.625 c 0,-0.125 0,-0.1875 -0.09375,-0.1875 -0.03125,0 -0.0625,0 -0.125,0.09375 l -0.359375,0.53125 c -0.34375,-0.359375 -0.84375,-0.625 -1.453125,-0.625 -1.453125,0 -2.671875,1.125 -2.671875,2.515625 0,1.390625 1.1875,2.53125 2.6875,2.53125 0.390625,0 1.15625,-0.078125 1.484375,-0.5625 C 4.78125,-0.234375 5.03125,0 5.109375,0 5.1875,0 5.1875,-0.078125 5.1875,-0.1875 Z m 0,0"
             transform="translate(165.9263,136.259)"
             id="path6077" />
        </g>
      </g>
    </g>
    <path
       inkscape:connector-curvature="0"
       id="path6243"
       d="m 960.56391,216.32332 132.93609,0"
       style="fill:none;fill-rule:evenodd;stroke:#000000;stroke-width:0.5;stroke-linecap:butt;stroke-linejoin:miter;stroke-opacity:1;stroke-miterlimit:4;stroke-dasharray:none" />
    <path
       sodipodi:nodetypes="cc"
       inkscape:connector-curvature="0"
       id="path6245"
       d="m 1070.0405,217.11254 0,41.22298"
       style="fill:none;fill-rule:evenodd;stroke:#000000;stroke-width:0.5;stroke-linecap:butt;stroke-linejoin:miter;stroke-miterlimit:4;stroke-dasharray:none;stroke-opacity:1;marker-start:url(#marker6507);marker-end:url(#marker6510)" />
    <g
       id="g6666"
       ns1:jacobian_sqrt="2.5"
       inkscapeversion="0.91"
       ns1:alignment="middle center"
       ns1:scale="2.0"
       ns1:preamble="/home/bernardo/.config/inkscape/extensions/default_packages.tex"
       ns1:text="$h$"
       ns1:pdfconverter="pdf2svg"
       ns1:texconverter="pdflatex"
       ns1:version="0.8.0"
       transform="matrix(2.5,0,0,2.5,699.73953,-90.51086)">
      <g
         id="g6668">
        <g
           id="g6670"
           style="fill:#000000;fill-opacity:1">
          <path
             id="path6672"
             transform="translate(148.712,134.765)"
             d="m 2.859375,-6.8125 c 0,0 0,-0.109375 -0.125,-0.109375 -0.234375,0 -0.953125,0.078125 -1.21875,0.109375 -0.078125,0 -0.1875,0.015625 -0.1875,0.1875 0,0.125 0.09375,0.125 0.234375,0.125 0.484375,0 0.5,0.0625 0.5,0.171875 L 2.03125,-6.125 0.59375,-0.390625 c -0.046875,0.140625 -0.046875,0.15625 -0.046875,0.21875 0,0.234375 0.203125,0.28125 0.296875,0.28125 0.15625,0 0.3125,-0.125 0.359375,-0.265625 l 0.1875,-0.75 0.21875,-0.890625 C 1.671875,-2.03125 1.734375,-2.25 1.78125,-2.46875 1.796875,-2.53125 1.890625,-2.859375 1.890625,-2.921875 1.921875,-3.015625 2.234375,-3.5625 2.578125,-3.84375 2.796875,-4 3.09375,-4.1875 3.53125,-4.1875 c 0.421875,0 0.53125,0.34375 0.53125,0.703125 0,0.53125 -0.375,1.625 -0.609375,2.234375 C 3.375,-1.03125 3.3125,-0.90625 3.3125,-0.703125 c 0,0.46875 0.359375,0.8125 0.828125,0.8125 0.9375,0 1.296875,-1.453125 1.296875,-1.53125 0,-0.109375 -0.078125,-0.109375 -0.109375,-0.109375 -0.109375,0 -0.109375,0.03125 -0.15625,0.1875 -0.140625,0.53125 -0.46875,1.234375 -1.015625,1.234375 -0.171875,0 -0.234375,-0.09375 -0.234375,-0.328125 0,-0.25 0.078125,-0.484375 0.171875,-0.703125 0.15625,-0.4375 0.609375,-1.625 0.609375,-2.203125 0,-0.640625 -0.390625,-1.0625 -1.140625,-1.0625 -0.625,0 -1.109375,0.3125 -1.484375,0.765625 z m 0,0"
             style="stroke:none;stroke-width:0"
             inkscape:connector-curvature="0" />
        </g>
      </g>
    </g>
  </g>
</svg>
